<?xml version="1.0" encoding="UTF-8" standalone="no"?>
<svg
   xmlns:dc="http://purl.org/dc/elements/1.1/"
   xmlns:cc="http://creativecommons.org/ns#"
   xmlns:rdf="http://www.w3.org/1999/02/22-rdf-syntax-ns#"
   xmlns:svg="http://www.w3.org/2000/svg"
   xmlns="http://www.w3.org/2000/svg"
   xmlns:sodipodi="http://sodipodi.sourceforge.net/DTD/sodipodi-0.dtd"
   xmlns:inkscape="http://www.inkscape.org/namespaces/inkscape"
   id="Layer_2"
   data-name="Layer 2"
   viewBox="0 0 729.72 355.82"
   version="1.1"
   sodipodi:docname="TUDO_logo_white.svg"
   inkscape:version="0.92.5 (2060ec1f9f, 2020-04-08)">
  <metadata
     id="metadata34">
    <rdf:RDF>
      <cc:Work
         rdf:about="">
        <dc:format>image/svg+xml</dc:format>
        <dc:type
           rdf:resource="http://purl.org/dc/dcmitype/StillImage" />
        <dc:title></dc:title>
      </cc:Work>
    </rdf:RDF>
  </metadata>
  <sodipodi:namedview
     pagecolor="#ffffff"
     bordercolor="#666666"
     borderopacity="1"
     objecttolerance="10"
     gridtolerance="10"
     guidetolerance="10"
     inkscape:pageopacity="0"
     inkscape:pageshadow="2"
     inkscape:window-width="1920"
     inkscape:window-height="1025"
     id="namedview32"
     showgrid="false"
     inkscape:pagecheckerboard="true"
     inkscape:zoom="0.94008665"
     inkscape:cx="361.31851"
     inkscape:cy="158.1311"
     inkscape:window-x="0"
     inkscape:window-y="28"
     inkscape:window-maximized="1"
     inkscape:current-layer="Layer_2" />
  <defs
     id="defs4">
    <style
       id="style2">
      .cls-1 {
        fill: #fff;
      }

      .cls-2 {
        fill: none;
        stroke: #fff;
        stroke-miterlimit: 10;
        stroke-width: 10px;
      }
    </style>
  </defs>
  <path
     style="fill:#ffffff"
     d="M 709.75781 -0.001953125 L 543.83008 55.445312 C 541.04304 52.741741 537.25872 51.060551 533.10938 51.060547 C 524.64131 51.060547 517.66992 58.031947 517.66992 66.5 C 517.66992 74.968053 524.64131 81.939453 533.10938 81.939453 C 541.57741 81.939445 548.55078 74.968048 548.55078 66.5 C 548.55078 65.808127 548.48855 65.131796 548.39844 64.462891 L 700.90234 13.5 L 719.40625 224.61133 L 625.04102 344.21484 L 488.78711 301.34961 L 282.8457 333.25977 C 280.64204 327.40844 274.98101 323.18945 268.40039 323.18945 C 259.93234 323.18945 252.96095 330.16281 252.96094 338.63086 C 252.96094 347.09891 259.93234 354.07031 268.40039 354.07031 C 275.22794 354.07031 281.07573 349.53614 283.08789 343.3418 L 488.01172 311.58984 L 628.61914 355.82422 L 729.71484 227.68945 L 709.75781 -0.001953125 z M -0.00390625 5.4121094 L 38.832031 148.95898 L 89.539062 179.16211 L 90.658203 345.36719 L 185.875 309.23438 C 188.38123 314.40716 193.68112 318.01953 199.76953 318.01953 C 208.23758 318.01953 215.21094 311.04813 215.21094 302.58008 C 215.21094 294.11202 208.23758 287.14064 199.76953 287.14062 C 192.55114 287.14062 186.43747 292.21291 184.78516 298.95312 L 100.56055 330.91211 L 99.5 173.45703 L 47.427734 142.43945 L 14.083984 19.1875 L 255.86328 78.832031 L 305.52539 53.472656 L 339.96875 91.037109 L 469.06641 130.20508 C 470.80332 136.82606 476.85715 141.7793 483.99023 141.7793 C 492.45829 141.7793 499.42969 134.8079 499.42969 126.33984 C 499.42969 117.87179 492.45829 110.90039 483.99023 110.90039 C 477.77174 110.90039 472.3718 114.66674 469.93555 120.01758 L 345.49023 82.261719 L 307.75391 41.107422 L 254.63672 68.228516 L -0.00390625 5.4121094 z M 38.550781 58.759766 L 69.949219 118.71094 L 118.48047 131.56055 C 118.48047 131.56055 138.4593 164.38992 147.0293 291.41992 L 189.84961 274.28906 C 189.84961 274.28906 195.56086 165.80937 194.13086 150.10938 L 238.38086 145.83008 C 238.38086 145.83008 245.52078 107.28977 249.80078 103.00977 C 254.08078 98.729762 38.560547 58.759766 38.560547 58.759766 L 38.550781 58.759766 z M 533.10938 61.060547 C 536.17301 61.06055 538.55078 63.43635 538.55078 66.5 C 538.55078 69.56365 536.17301 71.93945 533.10938 71.939453 C 530.04571 71.939453 527.66992 69.563652 527.66992 66.5 C 527.66992 63.436348 530.04571 61.060547 533.10938 61.060547 z M 632.125 66.929688 C 625.47917 66.958582 619.27797 68.260156 614.98047 69.160156 C 598.27047 72.670156 585.64094 81.030234 574.21094 90.740234 C 558.67378 103.95487 527.70124 130.26778 511.68555 174.09766 C 510.10496 172.58854 508.21007 171.18669 505.94922 169.91992 L 505.93945 169.91992 C 479.73945 155.24992 408.46984 154.19977 345.58984 122.75977 L 384.36914 295.68945 C 384.36914 295.68945 402.19016 301.98 417.91016 291.5 C 433.63016 281.02 487.07938 246.42977 498.60938 231.75977 C 499.17073 231.04554 499.77465 230.25553 500.37891 229.46094 C 499.48564 245.60489 501.71826 262.72968 512.66016 277.7793 C 525.46016 295.3793 544.0693 301.77016 551.0293 304.16016 C 588.2293 316.93016 620.49914 301.09055 625.36914 298.56055 C 629.28914 296.52055 644.08984 288.47086 657.33984 271.38086 C 687.06984 233.03086 680.97969 185.29063 674.92969 137.89062 L 674.92969 137.90039 C 667.58969 80.430392 652.16 71.990938 647.75 69.960938 C 642.73187 67.655313 637.29398 66.907213 632.125 66.929688 z M 315.44922 81.599609 C 311.86922 85.559609 272.32992 101.87008 266.91992 101.58008 C 267.76992 117.07008 271.22914 139.21062 284.36914 160.89062 C 305.46914 195.71062 337.83984 206.80055 334.33984 227.56055 C 332.76984 236.90055 324.55961 244.52039 317.34961 248.15039 C 308.77961 252.47039 297.96063 253.00961 289.39062 248.84961 C 281.21062 244.87961 276.2893 236.85992 269.2793 214.66992 C 264.4793 199.46992 259.1007 176.99031 258.2207 148.32031 C 243.4507 151.78031 228.68992 155.23922 213.91992 158.69922 L 213.92969 158.69922 C 212.10969 167.81922 210.13094 180.9393 209.96094 196.7793 C 209.79094 213.1393 209.53094 233.65922 216.96094 251.44922 C 233.26094 290.44922 286.33945 318.71945 325.43945 305.68945 C 368.25945 291.41945 363.97984 265.71945 356.83984 227.18945 C 349.69984 188.64945 315.44922 81.599609 315.44922 81.599609 z M 483.99023 120.90039 C 487.05389 120.90039 489.42969 123.27619 489.42969 126.33984 C 489.42969 129.4035 487.05389 131.7793 483.99023 131.7793 C 480.92658 131.7793 478.55078 129.4035 478.55078 126.33984 C 478.55078 123.27619 480.92658 120.90039 483.99023 120.90039 z M 596.43359 144.88477 C 599.48352 144.85236 602.60969 145.25781 605.71094 146.28906 C 631.96094 155.01906 641.71078 203.60961 626.80078 216.59961 L 626.80078 216.60938 C 620.73078 221.89937 611.56008 220.40922 602.58008 218.94922 C 586.02008 216.25922 554.30064 204.48047 554.14062 182.23047 C 554.09064 174.30047 558.05008 166.49064 564.58008 159.89062 C 569.32008 155.10063 575.39953 150.94961 582.26953 147.84961 C 586.47578 146.21211 591.35039 144.93877 596.43359 144.88477 z M 409.25977 173.63086 C 409.25977 173.63086 445.67937 178.64039 466.60938 188.65039 C 474.49937 192.43039 480.19039 196.90938 480.90039 202.10938 C 481.39039 205.66938 479.90016 208.95922 477.16016 211.94922 C 465.30016 224.90922 429.9707 232.32031 429.9707 232.32031 L 409.25977 173.63086 z M 199.76953 297.14062 C 202.83318 297.14062 205.21094 299.51643 205.21094 302.58008 C 205.21094 305.64373 202.83318 308.01953 199.76953 308.01953 C 196.70588 308.01953 194.33008 305.64373 194.33008 302.58008 C 194.33008 299.51643 196.70588 297.14063 199.76953 297.14062 z M 268.40039 333.18945 C 271.46404 333.18945 273.83984 335.56721 273.83984 338.63086 C 273.83984 341.69451 271.46404 344.07031 268.40039 344.07031 C 265.33674 344.07031 262.96094 341.69451 262.96094 338.63086 C 262.96094 335.56721 265.33674 333.18945 268.40039 333.18945 z "
     id="path12" />
</svg>
