<?xml version="1.0" encoding="UTF-8" standalone="no"?>
<!-- Generator: Adobe Illustrator 25.0.0, SVG Export Plug-In . SVG Version: 6.00 Build 0)  -->

<svg
   version="1.1"
   id="Layer_2"
   inkscape:version="1.2.2 (732a01da63, 2022-12-09)"
   sodipodi:docname="TUDO_logo_black.svg"
   x="0px"
   y="0px"
   viewBox="0 0 729.7 355.8"
   style="enable-background:new 0 0 729.7 355.8;"
   xml:space="preserve"
   xmlns:inkscape="http://www.inkscape.org/namespaces/inkscape"
   xmlns:sodipodi="http://sodipodi.sourceforge.net/DTD/sodipodi-0.dtd"
   xmlns="http://www.w3.org/2000/svg"
   xmlns:svg="http://www.w3.org/2000/svg"><defs
   id="defs14" />
<sodipodi:namedview
   bordercolor="#666666"
   borderopacity="1"
   gridtolerance="10"
   guidetolerance="10"
   id="namedview32"
   inkscape:current-layer="Layer_2"
   inkscape:cx="273.03841"
   inkscape:cy="180.52126"
   inkscape:pagecheckerboard="true"
   inkscape:pageopacity="0"
   inkscape:pageshadow="2"
   inkscape:window-height="1410"
   inkscape:window-maximized="1"
   inkscape:window-width="2256"
   inkscape:window-x="-11"
   inkscape:window-y="-11"
   inkscape:zoom="1.3294833"
   objecttolerance="10"
   pagecolor="#ffffff"
   showgrid="false"
   inkscape:showpageshadow="2"
   inkscape:deskcolor="#d1d1d1">
	</sodipodi:namedview>
<path
   d="M469.9,120L345.5,82.3l-37.7-41.1l-53.1,27.1L0,5.4L38.8,149l50.7,30.2l1.1,166.2l95.2-36.1c6.3,14.5,29.8,9.4,29.3-6.7  c0.1-18-26.4-21-30.4-3.6l-84.2,32l-1.1-157.5l-52.1-31L14.1,19.2l241.8,59.7l49.7-25.4L340,91l129.1,39.2  c4.3,17.2,30.4,14,30.4-3.9C499.9,110.1,476,105.2,469.9,120z M199.8,297.1c7.1-0.2,7.1,11,0,10.9  C192.7,308.2,192.7,297,199.8,297.1z M484,131.8c-7.1,0.2-7.1-11,0-10.9C491.1,120.7,491.1,131.9,484,131.8z"
   id="path3"
   style="fill:#000000;stroke:none;stroke-opacity:1;stroke-width:0.37795276;stroke-dasharray:none;fill-opacity:1" />
<path
   d="M325.4,305.7c-39.1,13-92.2-15.2-108.5-54.2c-11-28.9-7.5-67-3-92.8c14.8-3.5,29.5-6.9,44.3-10.4  c2.4,37.2,9.6,86.5,31.2,100.5c17,8.1,40.6-1.9,45-21.3c0.7-32-66.6-48.7-67.4-126c5.4,0.3,45-16,48.5-20c0,0,34.2,107,41.4,145.6  C364,265.7,368.3,291.4,325.4,305.7z"
   id="path5"
   style="stroke:none;fill:#000000;fill-opacity:1" />
<path
   d="M249.8,103c-4.3,4.3-11.4,42.8-11.4,42.8l-44.2,4.3c1.4,15.7-4.3,124.2-4.3,124.2L147,291.4c-8.6-127-28.6-159.9-28.6-159.9  L70,118.7l-31.4-60C38.6,58.8,254.1,98.7,249.8,103z"
   id="path7"
   style="fill:#000000;fill-opacity:1;stroke:none" />
<path
   d="M709.8,0L543.8,55.4c-9.1-9.5-26.6-2.2-26.2,11c0.3,21.5,33.3,19.3,30.7-2l152.5-51l18.5,211.1L625,344.2l-136.2-42.9  l-205.9,31.9c-5.3-15.7-30.3-11.5-29.9,5.4c-0.1,17.4,25.1,21.1,30.1,4.7L488,311.6l140.6,44.2l101.1-128.1L709.8,0z M533.1,71.9  c-7.1,0.2-7.1-11,0-10.9C540.2,60.9,540.2,72.1,533.1,71.9z M268.4,344.1c-7.1,0.2-7.1-11,0-10.9C275.5,333,275.5,344.2,268.4,344.1  z"
   id="path9"
   style="fill:#000000;stroke:none;stroke-opacity:1;stroke-width:0.37795276;stroke-dasharray:none;fill-opacity:1" />
<path
   d="M674.9,137.9c-11.6-67.2-19-67.8-42.8-71c-48.5,1.9-96.3,49.1-120.4,107.2c-30.3-22.2-98.3-16.9-166.1-51.3l38.8,172.9  c0,0,17.8,6.3,33.5-4.2c17-11.6,70.6-45.3,82.5-62C494.1,349.5,720,346.5,674.9,137.9z M430,232.3l-20.7-58.7  C451.6,178,535.1,205.2,430,232.3z M626.8,216.6L626.8,216.6c-18.8,11.6-72.5-7.5-72.7-34.4c0.6-19.7,22.5-36.6,42.3-37.4  C629,143.7,643.6,202,626.8,216.6z"
   id="path11"
   style="fill:#000000;fill-opacity:1;stroke:none" />
</svg>
